HIERARCHY
ROOT Hips
{
    OFFSET   0.000000   0.000000   0.000000
    CHANNELS 6 Xposition Yposition Zposition Zrotation Xrotation Yrotation
    JOINT Chest
    {
        OFFSET   0.000000   8.007230   0.000000
        CHANNELS 3 Zrotation Xrotation Yrotation
        JOINT Chest2
        {
            OFFSET   0.000000  22.077100   0.000000
            CHANNELS 3 Zrotation Xrotation Yrotation
            JOINT Neck
            {
                OFFSET   0.000000  23.255100   0.000000
                CHANNELS 3 Zrotation Xrotation Yrotation
                JOINT Head
                {
                    OFFSET   0.000000  14.370100   1.956600
                    CHANNELS 3 Zrotation Xrotation Yrotation
                    End Site
                    {
                        OFFSET   0.000000  19.566000   0.000000
                    }
                }
            }
            JOINT LeftCollar
            {
                OFFSET   3.911900  19.017000  -0.467063
                CHANNELS 3 Zrotation Xrotation Yrotation
                JOINT LeftShoulder
                {
                    OFFSET  10.383700   0.000000   0.000000
                    CHANNELS 3 Zrotation Xrotation Yrotation
                    JOINT LeftElbow
                    {
                        OFFSET  26.662100   0.001193   0.000980
                        CHANNELS 3 Zrotation Xrotation Yrotation
                        JOINT LeftWrist
                        {
                            OFFSET  28.869000  -0.000059  -0.000082
                            CHANNELS 3 Zrotation Xrotation Yrotation
                            JOINT LeftFinger0
                            {
                                OFFSET   2.044650  -2.323450   3.252850
                                CHANNELS 3 Zrotation Xrotation Yrotation
                                JOINT LeftFinger01
                                {
                                    OFFSET   3.088130   0.000000   0.000000
                                    CHANNELS 3 Zrotation Xrotation Yrotation
                                    JOINT LeftFinger02
                                    {
                                        OFFSET   2.639460   0.000000   0.000000
                                        CHANNELS 3 Zrotation Xrotation Yrotation
                                        End Site
                                        {
                                            OFFSET   2.582190   0.000000   0.000000
                                        }
                                    }
                                }
                            }
                            JOINT LeftFinger1
                            {
                                OFFSET   8.364480   0.000000   3.252850
                                CHANNELS 3 Zrotation Xrotation Yrotation
                                JOINT LeftFinger11
                                {
                                    OFFSET   4.646930   0.000000   0.000000
                                    CHANNELS 3 Zrotation Xrotation Yrotation
                                    JOINT LeftFinger12
                                    {
                                        OFFSET   2.323470   0.000000   0.000000
                                        CHANNELS 3 Zrotation Xrotation Yrotation
                                        End Site
                                        {
                                            OFFSET   2.273050   0.000000   0.000000
                                        }
                                    }
                                }
                            }
                            JOINT LeftFinger2
                            {
                                OFFSET   8.364490   0.000016   1.078090
                                CHANNELS 3 Zrotation Xrotation Yrotation
                                JOINT LeftFinger21
                                {
                                    OFFSET   5.111610   0.000000   0.000000
                                    CHANNELS 3 Zrotation Xrotation Yrotation
                                    JOINT LeftFinger22
                                    {
                                        OFFSET   2.788150   0.000016   0.000000
                                        CHANNELS 3 Zrotation Xrotation Yrotation
                                        End Site
                                        {
                                            OFFSET   2.727660   0.000000   0.000000
                                        }
                                    }
                                }
                            }
                            JOINT LeftFinger3
                            {
                                OFFSET   7.899780   0.000015  -1.078090
                                CHANNELS 3 Zrotation Xrotation Yrotation
                                JOINT LeftFinger31
                                {
                                    OFFSET   4.646930   0.000000   0.000000
                                    CHANNELS 3 Zrotation Xrotation Yrotation
                                    JOINT LeftFinger32
                                    {
                                        OFFSET   2.323470   0.000000   0.000000
                                        CHANNELS 3 Zrotation Xrotation Yrotation
                                        End Site
                                        {
                                            OFFSET   2.273050   0.000000   0.000000
                                        }
                                    }
                                }
                            }
                            JOINT LeftFinger4
                            {
                                OFFSET   7.435090   0.000000  -3.252850
                                CHANNELS 3 Zrotation Xrotation Yrotation
                                JOINT LeftFinger41
                                {
                                    OFFSET   3.717550   0.000000   0.000000
                                    CHANNELS 3 Zrotation Xrotation Yrotation
                                    JOINT LeftFinger42
                                    {
                                        OFFSET   1.858770   0.000000   0.000000
                                        CHANNELS 3 Zrotation Xrotation Yrotation
                                        End Site
                                        {
                                            OFFSET   1.818440   0.000000   0.000000
                                        }
                                    }
                                }
                            }
                        }
                    }
                }
            }
            JOINT RightCollar
            {
                OFFSET  -3.911910  19.017000  -0.467062
                CHANNELS 3 Zrotation Xrotation Yrotation
                JOINT RightShoulder
                {
                    OFFSET -10.383700   0.000014   0.000000
                    CHANNELS 3 Zrotation Xrotation Yrotation
                    JOINT RightElbow
                    {
                        OFFSET -26.662100   0.001225   0.001091
                        CHANNELS 3 Zrotation Xrotation Yrotation
                        JOINT RightWrist
                        {
                            OFFSET -28.869000  -0.000020  -0.000085
                            CHANNELS 3 Zrotation Xrotation Yrotation
                            JOINT RightFinger0
                            {
                                OFFSET  -2.044650  -2.323490   3.252850
                                CHANNELS 3 Zrotation Xrotation Yrotation
                                JOINT RightFinger01
                                {
                                    OFFSET  -3.088130   0.000000   0.000000
                                    CHANNELS 3 Zrotation Xrotation Yrotation
                                    JOINT RightFinger02
                                    {
                                        OFFSET  -2.639460   0.000000   0.000000
                                        CHANNELS 3 Zrotation Xrotation Yrotation
                                        End Site
                                        {
                                            OFFSET  -2.582190   0.000000   0.000000
                                        }
                                    }
                                }
                            }
                            JOINT RightFinger1
                            {
                                OFFSET  -8.364480   0.000000   3.252850
                                CHANNELS 3 Zrotation Xrotation Yrotation
                                JOINT RightFinger11
                                {
                                    OFFSET  -4.646930   0.000000   0.000000
                                    CHANNELS 3 Zrotation Xrotation Yrotation
                                    JOINT RightFinger12
                                    {
                                        OFFSET  -2.323470   0.000000   0.000000
                                        CHANNELS 3 Zrotation Xrotation Yrotation
                                        End Site
                                        {
                                            OFFSET  -2.273050   0.000000   0.000000
                                        }
                                    }
                                }
                            }
                            JOINT RightFinger2
                            {
                                OFFSET  -8.364480   0.000000   1.078090
                                CHANNELS 3 Zrotation Xrotation Yrotation
                                JOINT RightFinger21
                                {
                                    OFFSET  -5.111620   0.000000   0.000000
                                    CHANNELS 3 Zrotation Xrotation Yrotation
                                    JOINT RightFinger22
                                    {
                                        OFFSET  -2.788160   0.000000   0.000000
                                        CHANNELS 3 Zrotation Xrotation Yrotation
                                        End Site
                                        {
                                            OFFSET  -2.727660   0.000000   0.000000
                                        }
                                    }
                                }
                            }
                            JOINT RightFinger3
                            {
                                OFFSET  -7.899780   0.000000  -1.078090
                                CHANNELS 3 Zrotation Xrotation Yrotation
                                JOINT RightFinger31
                                {
                                    OFFSET  -4.646930   0.000000   0.000000
                                    CHANNELS 3 Zrotation Xrotation Yrotation
                                    JOINT RightFinger32
                                    {
                                        OFFSET  -2.323470   0.000000   0.000000
                                        CHANNELS 3 Zrotation Xrotation Yrotation
                                        End Site
                                        {
                                            OFFSET  -2.273050   0.000000   0.000000
                                        }
                                    }
                                }
                            }
                            JOINT RightFinger4
                            {
                                OFFSET  -7.435090   0.000000  -3.252850
                                CHANNELS 3 Zrotation Xrotation Yrotation
                                JOINT RightFinger41
                                {
                                    OFFSET  -3.717550   0.000000   0.000000
                                    CHANNELS 3 Zrotation Xrotation Yrotation
                                    JOINT RightFinger42
                                    {
                                        OFFSET  -1.858760   0.000000   0.000000
                                        CHANNELS 3 Zrotation Xrotation Yrotation
                                        End Site
                                        {
                                            OFFSET  -1.818440   0.000000   0.000000
                                        }
                                    }
                                }
                            }
                        }
                    }
                }
            }
        }
    }
    JOINT LeftHip
    {
        OFFSET   9.783030   0.000000   0.000000
        CHANNELS 3 Zrotation Xrotation Yrotation
        JOINT LeftKnee
        {
            OFFSET   0.000063 -41.789100   0.000608
            CHANNELS 3 Zrotation Xrotation Yrotation
            JOINT LeftAnkle
            {
                OFFSET   0.000048 -41.133200  -0.000184
                CHANNELS 3 Zrotation Xrotation Yrotation
                JOINT LeftToe
                {
                    OFFSET   0.000000  -6.358960  14.674500
                    CHANNELS 3 Zrotation Xrotation Yrotation
                    End Site
                    {
                        OFFSET   0.000000   0.000000   3.913200
                    }
                }
            }
        }
    }
    JOINT RightHip
    {
        OFFSET  -9.783030   0.000000   0.000000
        CHANNELS 3 Zrotation Xrotation Yrotation
        JOINT RightKnee
        {
            OFFSET   0.000071 -41.789100   0.001239
            CHANNELS 3 Zrotation Xrotation Yrotation
            JOINT RightAnkle
            {
                OFFSET   0.000037 -41.133200  -0.000166
                CHANNELS 3 Zrotation Xrotation Yrotation
                JOINT RightToe
                {
                    OFFSET   0.000000  -6.358960  14.674500
                    CHANNELS 3 Zrotation Xrotation Yrotation
                    End Site
                    {
                        OFFSET   0.000000   0.000000   3.913200
                    }
                }
            }
        }
    }
}
MOTION
Frames: 6
Frame Time:   0.016667
 -7.415950  88.702200   5.619750  -5.520710 -19.175800  -5.295840   2.272370  11.589600  -1.718490   5.067010  23.093100  -4.043670  -0.774345  -1.422400  -0.019458  -1.275540  -2.882220  22.652900  -4.483470  -1.980040   3.282060 -76.394500   4.846270 -15.185800   6.873500 -34.900500 -35.583400  54.262500 -83.768400  42.999200  37.960100  18.239000 -57.684900 -18.726600  -0.003926  -0.001220  -4.363310   0.002331  -0.005675 -24.657000   1.751370  -3.809980 -20.221500   0.001705  -0.001053 -14.155100   0.001311  -0.003498 -26.254600  -4.323810   8.673910 -26.583000   0.005384  -0.002105 -17.704300   0.003798   0.005446 -23.517600  -3.901490   8.862480 -23.820200   0.002842  -0.003819 -15.863500   0.000831  -0.004819 -25.297100  -4.799670  10.039300 -38.578200   0.005840  -0.002441 -25.693100   0.001374   0.003794   8.770690  -1.392260   8.526310  68.737000 -14.671500  12.933600 -11.292000 -36.380700  22.471600  28.405900 -72.341800  35.937200 -47.193500  22.061500  44.059500  -1.444940  -0.000929  -0.000000  -5.722480  -0.001566   0.003598  18.626400   3.254300   9.559450  15.462600   0.002506   0.006526  10.823800   0.003511  -0.004288  23.774700  -1.422580  -3.226680  23.814800   0.001871   0.001942  15.860600   0.001454   0.003132  22.646800  -3.948190  -9.369980  22.969400   0.000981   0.001399  15.297700   0.000866   0.006458  30.424100  -5.186230  -8.749660  46.230200   0.000364   0.003218  30.789300   0.003235  -0.000920   6.652430  22.329200   2.764170   3.960180   7.376070   6.543430  -6.705390  -9.096970   0.525768  -0.000000   0.000000   0.000000   9.710630  24.194200  -7.514520   1.066770   1.200880  -9.582100  -3.726930  -6.991800   6.850070  -0.000000   0.000000   0.000000
 -7.305710  88.714600   5.620500  -5.247600 -19.316100  -4.590740   2.194950  11.615200  -1.549330   4.872120  23.155200  -3.679520  -0.977283  -1.537050  -0.026198  -1.608920  -3.113320  23.044100  -4.523630  -2.043830   3.282910 -76.361500   4.710430 -15.049400   6.862810 -34.854300 -35.694100  53.835500 -83.746200  42.555400  37.980800  18.279900 -57.699700 -18.731200  -0.004000  -0.001265  -4.365620   0.002334  -0.005645 -24.670500   1.750580  -3.807600 -20.232500   0.001718  -0.001055 -14.162800   0.001324  -0.003536 -26.256900  -4.323710   8.674400 -26.585400   0.005394  -0.002096 -17.705900   0.003804   0.005448 -23.512800  -3.901390   8.862170 -23.815400   0.002853  -0.003810 -15.859800   0.000830  -0.004824 -25.272400  -4.789080  10.028500 -38.539000   0.005831  -0.002438 -25.667000   0.001357   0.003806   8.738820  -1.406940   8.610530  68.800800 -14.549600  12.971100 -11.294200 -36.434900  22.399700  28.294300 -72.279000  35.844900 -47.185600  22.056500  44.076700  -1.433080  -0.000971  -0.000000  -5.716540  -0.001584   0.003619  18.664500   3.264020   9.566800  15.494600   0.002522   0.006521  10.846200   0.003525  -0.004288  23.811900  -1.426930  -3.230290  23.852100   0.001868   0.001944  15.885500   0.001453   0.003140  22.673000  -4.020250  -9.526380  23.007500   0.000967   0.001397  15.323000   0.000862   0.006529  30.462300  -5.280960  -8.893760  46.309000   0.000399   0.003243  30.841800   0.003229  -0.000890   6.549410  22.245800   2.662430   4.034930   7.410880   6.175040  -6.662540  -9.030650   0.364676  -0.000000   0.000000  -0.000000   9.673820  24.250700  -7.646800   1.055290   1.246410  -9.841940  -3.694670  -7.067070   6.534390  -0.000000   0.000000   0.000000
 -7.192800  88.727400   5.619790  -4.982620 -19.452800  -3.900370   2.116230  11.639900  -1.374550   4.672980  23.214900  -3.303150  -1.138770  -1.626990  -0.032356  -1.874210  -3.296820  23.301600  -4.562740  -2.109710   3.283980 -76.319900   4.586250 -14.915800   6.869280 -34.813200 -35.795000  53.607500 -83.695700  42.310100  37.981600  18.270000 -57.683200 -18.693900  -0.004060  -0.001321  -4.346980   0.002325  -0.005614 -24.683800   1.752330  -3.808620 -20.243500   0.001737  -0.001056 -14.170400   0.001323  -0.003569 -26.268700  -4.323640   8.672290 -26.597000   0.005403  -0.002099 -17.713600   0.003817   0.005441 -23.512900  -3.901300   8.861980 -23.815500   0.002860  -0.003809 -15.860000   0.000831  -0.004829 -25.253600  -4.775080  10.008200 -38.507600   0.005824  -0.002438 -25.646100   0.001340   0.003813   8.714700  -1.425630   8.684730  68.849800 -14.400600  13.003500 -11.298700 -36.501800  22.314600  28.171800 -72.241500  35.737700 -47.168000  22.012800  44.040100  -1.432820  -0.001012  -0.000000  -5.716410  -0.001596   0.003545  18.689200   3.270560   9.571850  15.515400   0.002528   0.006509  10.860800   0.003537  -0.004287  23.843300  -1.433530  -3.238960  23.883800   0.001867   0.001941  15.906600   0.001455   0.003158  22.684300  -4.063090  -9.621180  23.025900   0.000952   0.001399  15.335300   0.000852   0.006588  30.485500  -5.338340  -8.980910  46.356900   0.000429   0.003286  30.873700   0.003223  -0.000867   6.457380  22.185300   2.566840   4.101520   7.404520   5.811120  -6.624860  -8.942790   0.207212   0.000000   0.000000  -0.000000   9.635630  24.307600  -7.753050   1.041900   1.296980 -10.149700  -3.650070  -7.134180   6.266000  -0.000000   0.000000   0.000000
 -7.076570  88.740100   5.618340  -4.716260 -19.589100  -3.208470   2.035880  11.665900  -1.200070   4.470340  23.276900  -2.926910  -1.284920  -1.704840  -0.038424  -2.115340  -3.455750  23.551100  -4.597570  -2.172020   3.284710 -76.277400   4.462400 -14.794900   6.886750 -34.780300 -35.885100  53.536500 -83.641200  42.215700  37.983400  18.258700 -57.669600 -18.656700  -0.004120  -0.001382  -4.328330   0.002315  -0.005583 -24.691600   1.756080  -3.813300 -20.250000   0.001756  -0.001057 -14.175000   0.001323  -0.003601 -26.287200  -4.323590   8.668140 -26.615300   0.005411  -0.002102 -17.725800   0.003830   0.005433 -23.513400  -3.901210   8.861420 -23.816300   0.002868  -0.003808 -15.861600   0.000832  -0.004832 -25.238600  -4.761280   9.986630 -38.482100   0.005817  -0.002437 -25.629100   0.001324   0.003816   8.694170  -1.446560   8.746090  68.894800 -14.238900  13.040900 -11.294700 -36.560100  22.247300  28.042900 -72.235000  35.629900 -47.121900  21.941600  43.992900  -1.432560  -0.001052   0.000000  -5.716270  -0.001607   0.003469  18.716000   3.277850   9.577840  15.538000   0.002536   0.006498  10.876600   0.003551  -0.004286  23.879600  -1.437790  -3.245170  23.920400   0.001866   0.001936  15.931000   0.001458   0.003179  22.699900  -4.091840  -9.680860  23.046300   0.000936   0.001406  15.348900   0.000842   0.006644  30.511000  -5.376610  -9.035150  46.403800   0.000460   0.003332  30.904900   0.003214  -0.000847   6.365660  22.149000   2.472620   4.164010   7.367980   5.445470  -6.588300  -8.837980   0.052534   0.000000   0.000000  -0.000000   9.593540  24.373600  -7.849940   1.029260   1.336630 -10.480900  -3.595850  -7.195870   6.016070   0.000000   0.000000  -0.000000
 -6.957870  88.752000   5.617520  -4.442470 -19.725800  -2.498250   1.955060  11.693400  -1.032600   4.268020  23.340900  -2.564860  -1.438790  -1.776550  -0.044731  -2.369540  -3.598600  23.916000  -4.625300  -2.223290   3.279370 -76.243300   4.320570 -14.699900   6.901030 -34.769500 -35.965100  53.701100 -83.600000  42.343400  37.986700  18.306700 -57.722900 -18.975100  -0.004186  -0.001452  -4.487560   0.002330  -0.005554 -24.689700   1.762290  -3.826920 -20.248800   0.001773  -0.001061 -14.174200   0.001327  -0.003639 -26.308100  -4.323560   8.662440 -26.635900   0.005419  -0.002096 -17.739800   0.003837   0.005440 -23.523400  -3.901150   8.859700 -23.826500   0.002879  -0.003790 -15.868800   0.000834  -0.004834 -25.234200  -4.751990   9.970020 -38.473300   0.005809  -0.002432 -25.623200   0.001314   0.003812   8.680950  -1.469550   8.772520  68.940700 -14.064600  13.094700 -11.262200 -36.572200  22.234300  27.889100 -72.305400  35.527400 -47.064200  21.876600  43.984100  -1.399740  -0.001092   0.000037  -5.699860  -0.001623   0.003467  18.763100   3.289480   9.585660  15.577500   0.002555   0.006495  10.904300   0.003570  -0.004287  23.937700  -1.437810  -3.241370  23.978400   0.001859   0.001933  15.969600   0.001459   0.003201  22.743100  -4.115240  -9.709460  23.092800   0.000916   0.001423  15.379900   0.000835   0.006703  30.557600  -5.404440  -9.059790  46.479100   0.000501   0.003367  30.955100   0.003193  -0.000834   6.269270  22.136600   2.375010   4.229020   7.290290   5.062670  -6.550770  -8.716290  -0.092850  -0.000000   0.000000   0.000000   9.548760  24.462500  -7.949720   1.019930   1.346310 -10.829700  -3.530570  -7.252550   5.770130   0.000000   0.000000   0.000000
 -6.832250  88.763800   5.614690  -4.159430 -19.864500  -1.775680   1.874100  11.723600  -0.869941   4.066260  23.409400  -2.212620  -1.586680  -1.842090  -0.051037  -2.613910  -3.727940  24.305500  -4.649570  -2.268640   3.269960 -76.219700   4.181460 -14.618000   6.906140 -34.795000 -36.043300  53.956700 -83.572100  42.551900  37.989900  18.359000 -57.781700 -19.348900  -0.004254  -0.001494  -4.674470   0.002345  -0.005524 -24.683900   1.766510  -3.836880 -20.244400   0.001788  -0.001065 -14.171100   0.001332  -0.003677 -26.326900  -4.323510   8.658090 -26.654500   0.005429  -0.002090 -17.751900   0.003843   0.005448 -23.537300  -3.901090   8.857920 -23.840200   0.002891  -0.003770 -15.877600   0.000836  -0.004834 -25.229600  -4.747140   9.961750 -38.465400   0.005803  -0.002426 -25.617900   0.001304   0.003805   8.672280  -1.495050   8.778060  68.984900 -13.887300  13.158800 -11.244000 -36.584100  22.222600  27.798600 -72.365800  35.472700 -47.037600  21.833800  44.001500  -1.367310  -0.001129   0.000075  -5.683650  -0.001637   0.003465  18.813600   3.304700   9.601960  15.620300   0.002576   0.006494  10.934200   0.003590  -0.004287  23.998900  -1.437830  -3.226860  24.039600   0.001849   0.001928  16.010400   0.001459   0.003221  22.795300  -4.125490  -9.714540  23.146100   0.000898   0.001439  15.415300   0.000830   0.006763  30.612000  -5.415460  -9.063420  46.562500   0.000543   0.003401  31.010600   0.003175  -0.000820   6.165570  22.136000   2.274360   4.289820   7.189640   4.677670  -6.510760  -8.584160  -0.238551  -0.000000   0.000000   0.000000   9.495480  24.561200  -8.049060   1.014000   1.348600 -11.180200  -3.457500  -7.306000   5.516370  -0.000000   0.000000   0.000000
